<svg xmlns="http://www.w3.org/2000/svg" style="display: none;">
  <!-- Business and Commerce Icons -->
  <symbol id="icon-business" viewBox="0 0 24 24">
    <path fill="currentColor" d="M12 7V3H2v18h20V7H12zM6 19H4v-2h2v2zm0-4H4v-2h2v2zm0-4H4V9h2v2zm0-4H4V5h2v2zm4 12H8v-2h2v2zm0-4H8v-2h2v2zm0-4H8V9h2v2zm0-4H8V5h2v2zm10 12h-8v-2h2v-2h-2v-2h2v-2h-2V9h8v10zm-2-8h-2v2h2v-2zm0 4h-2v2h2v-2z"/>
  </symbol>

  <!-- Traditional/Cultural Icons -->
  <symbol id="icon-om" viewBox="0 0 24 24">
    <path fill="currentColor" d="M12 2C6.48 2 2 6.48 2 12s4.48 10 10 10 10-4.48 10-10S17.52 2 12 2zm0 18c-4.41 0-8-3.59-8-8s3.59-8 8-8 8 3.59 8 8-3.59 8-8 8z"/>
    <path fill="currentColor" d="M8.5 12c0-.83.67-1.5 1.5-1.5s1.5.67 1.5 1.5-.67 1.5-1.5 1.5S8.5 12.83 8.5 12zm3.5-4c.83 0 1.5-.67 1.5-1.5S12.83 5 12 5s-1.5.67-1.5 1.5S11.17 8 12 8zm2.5 4c0-.83.67-1.5 1.5-1.5s1.5.67 1.5 1.5-.67 1.5-1.5 1.5-1.5-.67-1.5-1.5z"/>
  </symbol>

  <!-- Service Icons -->
  <symbol id="icon-consultation" viewBox="0 0 24 24">
    <path fill="currentColor" d="M16 4c0-1.11.89-2 2-2s2 .89 2 2-.89 2-2 2-2-.89-2-2zm4 18v-6h2.5l-2.54-7.63A1.996 1.996 0 0 0 18.06 7c-.8 0-1.54.5-1.85 1.26L14.5 12h2.5v10h3zm-7.5-10.5c.83 0 1.5-.67 1.5-1.5s-.67-1.5-1.5-1.5-1.5.67-1.5 1.5.67 1.5 1.5 1.5zm-2.5 6c.83 0 1.5-.67 1.5-1.5S10.83 16 10 16s-1.5.67-1.5 1.5.67 1.5 1.5 1.5zm1-9c1.66 0 3-1.34 3-3S12.66 2 11 2 8 3.34 8 5s1.34 3 3 3z"/>
  </symbol>

  <!-- Product Icons -->
  <symbol id="icon-handicraft" viewBox="0 0 24 24">
    <path fill="currentColor" d="M12 2l3.09 6.26L22 9l-5 4.87L18.18 21 12 17.77 5.82 21 7 13.87 2 9l6.91-.74L12 2z"/>
  </symbol>

  <symbol id="icon-textile" viewBox="0 0 24 24">
    <path fill="currentColor" d="M6 2v6h.01L6 8.01 10 12l-4 4 .01.01H6V22h12v-5.99h-.01L18 16l-4-4 4-3.99-.01-.01H18V2H6zm10 14.5V20H8v-3.5l4-4 4 4zm0-9V4h-4v3.5L8 11.5V4h8z"/>
  </symbol>

  <!-- Technology Icons -->
  <symbol id="icon-digital" viewBox="0 0 24 24">
    <path fill="currentColor" d="M20 3H4c-1.1 0-2 .9-2 2v11c0 1.1.9 2 2 2h3l-1 1v2h12v-2l-1-1h3c1.1 0 2-.9 2-2V5c0-1.1-.9-2-2-2zm0 13H4V5h16v11z"/>
  </symbol>

  <!-- Quality and Trust Icons -->
  <symbol id="icon-quality" viewBox="0 0 24 24">
    <path fill="currentColor" d="M12,1L3,5V11C3,16.55 6.84,21.74 12,23C17.16,21.74 21,16.55 21,11V5L12,1M12,7C13.4,7 14.8,8.6 14.8,10V11.5H16.2V16.2H7.8V11.5H9.2V10C9.2,8.6 10.6,7 12,7M12,8.2C11.2,8.2 10.4,8.7 10.4,10V11.5H13.6V10C13.6,8.7 12.8,8.2 12,8.2Z"/>
  </symbol>

  <!-- Contact and Communication Icons -->
  <symbol id="icon-phone" viewBox="0 0 24 24">
    <path fill="currentColor" d="M6.62,10.79C8.06,13.62 10.38,15.94 13.21,17.38L15.41,15.18C15.69,14.9 16.08,14.82 16.43,14.93C17.55,15.3 18.75,15.5 20,15.5A1,1 0 0,1 21,16.5V20A1,1 0 0,1 20,21A17,17 0 0,1 3,4A1,1 0 0,1 4,3H7.5A1,1 0 0,1 8.5,4C8.5,5.25 8.7,6.45 9.07,7.57C9.18,7.92 9.1,8.31 8.82,8.59L6.62,10.79Z"/>
  </symbol>

  <symbol id="icon-email" viewBox="0 0 24 24">
    <path fill="currentColor" d="M20,8L12,13L4,8V6L12,11L20,6M20,4H4C2.89,4 2,4.89 2,6V18A2,2 0 0,0 4,20H20A2,2 0 0,0 22,18V6C22,4.89 21.1,4 20,4Z"/>
  </symbol>

  <!-- Navigation Icons -->
  <symbol id="icon-menu" viewBox="0 0 24 24">
    <path fill="currentColor" d="M3,6H21V8H3V6M3,11H21V13H3V11M3,16H21V18H3V16Z"/>
  </symbol>

  <symbol id="icon-close" viewBox="0 0 24 24">
    <path fill="currentColor" d="M19,6.41L17.59,5L12,10.59L6.41,5L5,6.41L10.59,12L5,17.59L6.41,19L12,13.41L17.59,19L19,17.59L13.41,12L19,6.41Z"/>
  </symbol>

  <!-- Arrow Icons -->
  <symbol id="icon-arrow-right" viewBox="0 0 24 24">
    <path fill="currentColor" d="M4,11V13H16L10.5,18.5L11.92,19.92L19.84,12L11.92,4.08L10.5,5.5L16,11H4Z"/>
  </symbol>

  <symbol id="icon-arrow-down" viewBox="0 0 24 24">
    <path fill="currentColor" d="M7.41,8.58L12,13.17L16.59,8.58L18,10L12,16L6,10L7.41,8.58Z"/>
  </symbol>

  <!-- Social Media Icons -->
  <symbol id="icon-facebook" viewBox="0 0 24 24">
    <path fill="currentColor" d="M24 12.073c0-6.627-5.373-12-12-12s-12 5.373-12 12c0 5.99 4.388 10.954 10.125 11.854v-8.385H7.078v-3.47h3.047V9.43c0-3.007 1.792-4.669 4.533-4.669 1.312 0 2.686.235 2.686.235v2.953H15.83c-1.491 0-1.956.925-1.956 1.874v2.25h3.328l-.532 3.47h-2.796v8.385C19.612 23.027 24 18.062 24 12.073z"/>
  </symbol>

  <symbol id="icon-twitter" viewBox="0 0 24 24">
    <path fill="currentColor" d="M23.953 4.57a10 10 0 01-2.825.775 4.958 4.958 0 002.163-2.723c-.951.555-2.005.959-3.127 1.184a4.92 4.92 0 00-8.384 4.482C7.69 8.095 4.067 6.13 1.64 3.162a4.822 4.822 0 00-.666 2.475c0 1.71.87 3.213 2.188 4.096a4.904 4.904 0 01-2.228-.616v.06a4.923 4.923 0 003.946 4.827 4.996 4.996 0 01-2.212.085 4.936 4.936 0 004.604 3.417 9.867 9.867 0 01-6.102 2.105c-.39 0-.779-.023-1.17-.067a13.995 13.995 0 007.557 2.209c9.053 0 13.998-7.496 13.998-13.985 0-.21 0-.42-.015-.63A9.935 9.935 0 0024 4.59z"/>
  </symbol>

  <symbol id="icon-instagram" viewBox="0 0 24 24">
    <path fill="currentColor" d="M12 2.163c3.204 0 3.584.012 4.85.07 3.252.148 4.771 1.691 4.919 4.919.058 1.265.069 1.645.069 4.849 0 3.205-.012 3.584-.069 4.849-.149 3.225-1.664 4.771-4.919 4.919-1.266.058-1.644.07-4.85.07-3.204 0-3.584-.012-4.849-.07-3.26-.149-4.771-1.699-4.919-4.92-.058-1.265-.07-1.644-.07-4.849 0-3.204.013-3.583.07-4.849.149-3.227 1.664-4.771 4.919-4.919 1.266-.057 1.645-.069 4.849-.069zm0-2.163c-3.259 0-3.667.014-4.947.072-4.358.2-6.78 2.618-6.98 6.98-.059 1.281-.073 1.689-.073 4.948 0 3.259.014 3.668.072 4.948.2 4.358 2.618 6.78 6.98 6.98 1.281.058 1.689.072 4.948.072 3.259 0 3.668-.014 4.948-.072 4.354-.2 6.782-2.618 6.979-6.98.059-1.28.073-1.689.073-4.948 0-3.259-.014-3.667-.072-4.947-.196-4.354-2.617-6.78-6.979-6.98-1.281-.059-1.69-.073-4.949-.073zm0 5.838c-3.403 0-6.162 2.759-6.162 6.162s2.759 6.163 6.162 6.163 6.162-2.759 6.162-6.163c0-3.403-2.759-6.162-6.162-6.162zm0 10.162c-2.209 0-4-1.79-4-4 0-2.209 1.791-4 4-4s4 1.791 4 4c0 2.21-1.791 4-4 4zm6.406-11.845c-.796 0-1.441.645-1.441 1.44s.645 1.44 1.441 1.44c.795 0 1.439-.645 1.439-1.44s-.644-1.44-1.439-1.44z"/>
  </symbol>

  <symbol id="icon-linkedin" viewBox="0 0 24 24">
    <path fill="currentColor" d="M20.447 20.452h-3.554v-5.569c0-1.328-.027-3.037-1.852-3.037-1.853 0-2.136 1.445-2.136 2.939v5.667H9.351V9h3.414v1.561h.046c.477-.9 1.637-1.85 3.37-1.85 3.601 0 4.267 2.37 4.267 5.455v6.286zM5.337 7.433c-1.144 0-2.063-.926-2.063-2.065 0-1.138.92-2.063 2.063-2.063 1.14 0 2.064.925 2.064 2.063 0 1.139-.925 2.065-2.064 2.065zm1.782 13.019H3.555V9h3.564v11.452zM22.225 0H1.771C.792 0 0 .774 0 1.729v20.542C0 23.227.792 24 1.771 24h20.451C23.2 24 24 23.227 24 22.271V1.729C24 .774 23.2 0 22.222 0h.003z"/>
  </symbol>

  <!-- Success and Check Icons -->
  <symbol id="icon-check" viewBox="0 0 24 24">
    <path fill="currentColor" d="M21,7L9,19L3.5,13.5L4.91,12.09L9,16.17L19.59,5.59L21,7Z"/>
  </symbol>

  <symbol id="icon-star" viewBox="0 0 24 24">
    <path fill="currentColor" d="M12,17.27L18.18,21L16.54,13.97L22,9.24L14.81,8.62L12,2L9.19,8.62L2,9.24L7.46,13.97L5.82,21L12,17.27Z"/>
  </symbol>

  <!-- Growth and Chart Icons -->
  <symbol id="icon-chart-line" viewBox="0 0 24 24">
    <path fill="currentColor" d="M16,6L18.29,8.29L13.41,13.17L9.41,9.17L2,16.59L3.41,18L9.41,12L13.41,16L19.71,9.71L22,12V6H16Z"/>
  </parameter>

  <!-- Support and Help Icons -->
  <symbol id="icon-headset" viewBox="0 0 24 24">
    <path fill="currentColor" d="M12,1C7,1 3,5 3,10V17A3,3 0 0,0 6,20H9V12H5V10A7,7 0 0,1 12,3A7,7 0 0,1 19,10V12H15V20H18A3,3 0 0,0 21,17V10C21,5 17,1 12,1Z"/>
  </symbol>

  <!-- Location and Map Icons -->
  <symbol id="icon-location" viewBox="0 0 24 24">
    <path fill="currentColor" d="M12,11.5A2.5,2.5 0 0,1 9.5,9A2.5,2.5 0 0,1 12,6.5A2.5,2.5 0 0,1 14.5,9A2.5,2.5 0 0,1 12,11.5M12,2A7,7 0 0,0 5,9C5,14.25 12,22 12,22C12,22 19,14.25 19,9A7,7 0 0,0 12,2Z"/>
  </symbol>

  <!-- Time and Calendar Icons -->
  <symbol id="icon-clock" viewBox="0 0 24 24">
    <path fill="currentColor" d="M12,2A10,10 0 0,0 2,12A10,10 0 0,0 12,22A10,10 0 0,0 22,12A10,10 0 0,0 12,2M16.2,16.2L11,13V7H12.5V12.2L17,14.7L16.2,16.2Z"/>
  </symbol>

  <!-- Shopping and Commerce Icons -->
  <symbol id="icon-cart" viewBox="0 0 24 24">
    <path fill="currentColor" d="M17,18C15.89,18 15,18.89 15,20A2,2 0 0,0 17,22A2,2 0 0,0 19,20C19,18.89 18.1,18 17,18M1,2V4H3L6.6,11.59L5.24,14.04C5.09,14.32 5,14.65 5,15A2,2 0 0,0 7,17H19V15H7.42A0.25,0.25 0 0,1 7.17,14.75C7.17,14.7 7.18,14.66 7.2,14.63L8.1,13H15.55C16.3,13 16.96,12.58 17.3,11.97L20.88,5H5.21L4.27,3H1M7,18C5.89,18 5,18.89 5,20A2,2 0 0,0 7,22A2,2 0 0,0 9,20C9,18.89 8.1,18 7,18Z"/>
  </symbol>

  <!-- Security Icons -->
  <symbol id="icon-shield" viewBox="0 0 24 24">
    <path fill="currentColor" d="M12,1L3,5V11C3,16.55 6.84,21.74 12,23C17.16,21.74 21,16.55 21,11V5L12,1M10,17L6,13L7.41,11.59L10,14.17L16.59,7.58L18,9L10,17Z"/>
  </symbol>

  <!-- Innovation and Lightbulb Icons -->
  <symbol id="icon-lightbulb" viewBox="0 0 24 24">
    <path fill="currentColor" d="M12,2A7,7 0 0,0 5,9C5,11.38 6.19,13.47 8,14.74V17A1,1 0 0,0 9,18H15A1,1 0 0,0 16,17V14.74C17.81,13.47 19,11.38 19,9A7,7 0 0,0 12,2M9,21A1,1 0 0,0 10,22H14A1,1 0 0,0 15,21V20H9V21Z"/>
  </symbol>

  <!-- Tools and Settings Icons -->
  <symbol id="icon-tools" viewBox="0 0 24 24">
    <path fill="currentColor" d="M22.7,19L13.6,9.9C14.5,7.6 14,4.9 12.1,3C10.1,1 7.1,1 5.1,3L9.6,7.5C8.4,8.7 8.4,10.6 9.6,11.8C10.8,13 12.7,13 13.9,11.8L18.4,7.3C20.4,9.3 20.4,12.3 18.4,14.3C16.5,16.2 13.8,15.7 11.5,16.6L2.4,7.5C0.4,9.5 0.4,12.5 2.4,14.5L7.9,20C9.9,22 12.9,22 14.9,20L19.4,15.5C22.7,16 22.7,19 22.7,19Z"/>
  </symbol>
</svg>
